# xmcd
#
# Track frame offsets:
#	150
#	13654
#	26273
#	37710
#	50348
#	65049
#	80276
#	96621
#	112512
#	123793
#	137176
#	147778
#
# Disc length: 2167 seconds
#
# Revision: 0
# Processed by: cddbd v1.4PL0 Copyright (c) Steve Scherf et al.
# Submitted via: EasyCDDAExtractor 4.6.0.1
#
DISCID=9108750c
DTITLE=Ray Price - the Other Woman
DYEAR=1965
DGENRE=Country
TTITLE0=the Other Woman (in My Life)
TTITLE1=Don't You Ever Get Tired of Hurting Me
TTITLE2=After Effects (from Loving You)
TTITLE3=Too Much Love Is Spoiling You
TTITLE4=an Eye for an Eye
TTITLE5=Unloved, Unwanted
TTITLE6=Funny How Time Slips Away
TTITLE7=Born to Lose
TTITLE8=Just Call Me Lonesome
TTITLE9=This Cold War With You
TTITLE10=Rose-Colored Glasses
TTITLE11=the Last Letter
EXTD=
EXTT0=
EXTT1=
EXTT2=
EXTT3=
EXTT4=
EXTT5=
EXTT6=
EXTT7=
EXTT8=
EXTT9=
EXTT10=
EXTT11=
PLAYORDER=
